<?xml version="1.0" standalone="no"?>
<svg xmlns:xlink="http://www.w3.org/1999/xlink" id="wave" style="transform:rotate(0deg); transition: 0.3s" viewBox="0 0 1440 490" version="1.1" xmlns="http://www.w3.org/2000/svg"><defs><linearGradient id="sw-gradient-0" x1="0" x2="0" y1="1" y2="0"><stop stop-color="rgba(243, 106, 62, 1)" offset="0%"/><stop stop-color="rgba(255, 179, 11, 1)" offset="100%"/></linearGradient></defs><path style="transform:translate(0, 0px); opacity:1" fill="url(#sw-gradient-0)" d="M0,245L80,228.7C160,212,320,180,480,171.5C640,163,800,180,960,196C1120,212,1280,229,1440,253.2C1600,278,1760,310,1920,318.5C2080,327,2240,310,2400,326.7C2560,343,2720,392,2880,408.3C3040,425,3200,408,3360,334.8C3520,261,3680,131,3840,65.3C4000,0,4160,0,4320,40.8C4480,82,4640,163,4800,179.7C4960,196,5120,147,5280,163.3C5440,180,5600,261,5760,261.3C5920,261,6080,180,6240,171.5C6400,163,6560,229,6720,269.5C6880,310,7040,327,7200,351.2C7360,376,7520,408,7680,400.2C7840,392,8000,343,8160,302.2C8320,261,8480,229,8640,236.8C8800,245,8960,294,9120,269.5C9280,245,9440,147,9600,130.7C9760,114,9920,180,10080,187.8C10240,196,10400,147,10560,122.5C10720,98,10880,98,11040,114.3C11200,131,11360,163,11440,179.7L11520,196L11520,490L11440,490C11360,490,11200,490,11040,490C10880,490,10720,490,10560,490C10400,490,10240,490,10080,490C9920,490,9760,490,9600,490C9440,490,9280,490,9120,490C8960,490,8800,490,8640,490C8480,490,8320,490,8160,490C8000,490,7840,490,7680,490C7520,490,7360,490,7200,490C7040,490,6880,490,6720,490C6560,490,6400,490,6240,490C6080,490,5920,490,5760,490C5600,490,5440,490,5280,490C5120,490,4960,490,4800,490C4640,490,4480,490,4320,490C4160,490,4000,490,3840,490C3680,490,3520,490,3360,490C3200,490,3040,490,2880,490C2720,490,2560,490,2400,490C2240,490,2080,490,1920,490C1760,490,1600,490,1440,490C1280,490,1120,490,960,490C800,490,640,490,480,490C320,490,160,490,80,490L0,490Z"/><defs><linearGradient id="sw-gradient-1" x1="0" x2="0" y1="1" y2="0"><stop stop-color="rgba(243, 106, 62, 1)" offset="0%"/><stop stop-color="rgba(255, 179, 11, 1)" offset="100%"/></linearGradient></defs><path style="transform:translate(0, 50px); opacity:0.9" fill="url(#sw-gradient-1)" d="M0,294L80,294C160,294,320,294,480,245C640,196,800,98,960,65.3C1120,33,1280,65,1440,65.3C1600,65,1760,33,1920,89.8C2080,147,2240,294,2400,310.3C2560,327,2720,212,2880,204.2C3040,196,3200,294,3360,318.5C3520,343,3680,294,3840,277.7C4000,261,4160,278,4320,310.3C4480,343,4640,392,4800,400.2C4960,408,5120,376,5280,326.7C5440,278,5600,212,5760,163.3C5920,114,6080,82,6240,130.7C6400,180,6560,310,6720,375.7C6880,441,7040,441,7200,408.3C7360,376,7520,310,7680,269.5C7840,229,8000,212,8160,228.7C8320,245,8480,294,8640,277.7C8800,261,8960,180,9120,147C9280,114,9440,131,9600,187.8C9760,245,9920,343,10080,351.2C10240,359,10400,278,10560,245C10720,212,10880,229,11040,228.7C11200,229,11360,212,11440,204.2L11520,196L11520,490L11440,490C11360,490,11200,490,11040,490C10880,490,10720,490,10560,490C10400,490,10240,490,10080,490C9920,490,9760,490,9600,490C9440,490,9280,490,9120,490C8960,490,8800,490,8640,490C8480,490,8320,490,8160,490C8000,490,7840,490,7680,490C7520,490,7360,490,7200,490C7040,490,6880,490,6720,490C6560,490,6400,490,6240,490C6080,490,5920,490,5760,490C5600,490,5440,490,5280,490C5120,490,4960,490,4800,490C4640,490,4480,490,4320,490C4160,490,4000,490,3840,490C3680,490,3520,490,3360,490C3200,490,3040,490,2880,490C2720,490,2560,490,2400,490C2240,490,2080,490,1920,490C1760,490,1600,490,1440,490C1280,490,1120,490,960,490C800,490,640,490,480,490C320,490,160,490,80,490L0,490Z"/><defs><linearGradient id="sw-gradient-2" x1="0" x2="0" y1="1" y2="0"><stop stop-color="rgba(243, 106, 62, 1)" offset="0%"/><stop stop-color="rgba(255, 179, 11, 1)" offset="100%"/></linearGradient></defs><path style="transform:translate(0, 100px); opacity:0.8" fill="url(#sw-gradient-2)" d="M0,343L80,302.2C160,261,320,180,480,179.7C640,180,800,261,960,277.7C1120,294,1280,245,1440,212.3C1600,180,1760,163,1920,204.2C2080,245,2240,343,2400,359.3C2560,376,2720,310,2880,236.8C3040,163,3200,82,3360,57.2C3520,33,3680,65,3840,73.5C4000,82,4160,65,4320,73.5C4480,82,4640,114,4800,155.2C4960,196,5120,245,5280,294C5440,343,5600,392,5760,416.5C5920,441,6080,441,6240,367.5C6400,294,6560,147,6720,81.7C6880,16,7040,33,7200,73.5C7360,114,7520,180,7680,179.7C7840,180,8000,114,8160,130.7C8320,147,8480,245,8640,245C8800,245,8960,147,9120,163.3C9280,180,9440,310,9600,326.7C9760,343,9920,245,10080,204.2C10240,163,10400,180,10560,155.2C10720,131,10880,65,11040,106.2C11200,147,11360,294,11440,367.5L11520,441L11520,490L11440,490C11360,490,11200,490,11040,490C10880,490,10720,490,10560,490C10400,490,10240,490,10080,490C9920,490,9760,490,9600,490C9440,490,9280,490,9120,490C8960,490,8800,490,8640,490C8480,490,8320,490,8160,490C8000,490,7840,490,7680,490C7520,490,7360,490,7200,490C7040,490,6880,490,6720,490C6560,490,6400,490,6240,490C6080,490,5920,490,5760,490C5600,490,5440,490,5280,490C5120,490,4960,490,4800,490C4640,490,4480,490,4320,490C4160,490,4000,490,3840,490C3680,490,3520,490,3360,490C3200,490,3040,490,2880,490C2720,490,2560,490,2400,490C2240,490,2080,490,1920,490C1760,490,1600,490,1440,490C1280,490,1120,490,960,490C800,490,640,490,480,490C320,490,160,490,80,490L0,490Z"/><defs><linearGradient id="sw-gradient-3" x1="0" x2="0" y1="1" y2="0"><stop stop-color="rgba(243, 106, 62, 1)" offset="0%"/><stop stop-color="rgba(255, 179, 11, 1)" offset="100%"/></linearGradient></defs><path style="transform:translate(0, 150px); opacity:0.7" fill="url(#sw-gradient-3)" d="M0,49L80,81.7C160,114,320,180,480,212.3C640,245,800,245,960,269.5C1120,294,1280,343,1440,310.3C1600,278,1760,163,1920,130.7C2080,98,2240,147,2400,187.8C2560,229,2720,261,2880,269.5C3040,278,3200,261,3360,245C3520,229,3680,212,3840,187.8C4000,163,4160,131,4320,138.8C4480,147,4640,196,4800,228.7C4960,261,5120,278,5280,294C5440,310,5600,327,5760,294C5920,261,6080,180,6240,147C6400,114,6560,131,6720,171.5C6880,212,7040,278,7200,285.8C7360,294,7520,245,7680,253.2C7840,261,8000,327,8160,294C8320,261,8480,131,8640,138.8C8800,147,8960,294,9120,343C9280,392,9440,343,9600,310.3C9760,278,9920,261,10080,220.5C10240,180,10400,114,10560,73.5C10720,33,10880,16,11040,32.7C11200,49,11360,98,11440,122.5L11520,147L11520,490L11440,490C11360,490,11200,490,11040,490C10880,490,10720,490,10560,490C10400,490,10240,490,10080,490C9920,490,9760,490,9600,490C9440,490,9280,490,9120,490C8960,490,8800,490,8640,490C8480,490,8320,490,8160,490C8000,490,7840,490,7680,490C7520,490,7360,490,7200,490C7040,490,6880,490,6720,490C6560,490,6400,490,6240,490C6080,490,5920,490,5760,490C5600,490,5440,490,5280,490C5120,490,4960,490,4800,490C4640,490,4480,490,4320,490C4160,490,4000,490,3840,490C3680,490,3520,490,3360,490C3200,490,3040,490,2880,490C2720,490,2560,490,2400,490C2240,490,2080,490,1920,490C1760,490,1600,490,1440,490C1280,490,1120,490,960,490C800,490,640,490,480,490C320,490,160,490,80,490L0,490Z"/></svg>